Coordinates
version=1
nRows=21
nColumns=12
inDegrees=yes

Units are S.I. units (second, meters, Newtons, ...)
Angles are in degrees

endheader
time	SC_y	SC_z	SC_x	AC_y	AC_z	AC_x	GH_y	GH_z	GH_yy	EL_x	PS_y
       0.0              -31.59          1.643          79.68          46.79          6.933          -4.76           4.61          27.09          163.8          103.4          112.3
   0.02801              -31.59          1.647          79.67          46.79          6.932         -4.758          4.606          27.09          163.7          103.4          112.3
   0.05602              -31.59           1.65          79.66          46.79          6.931         -4.756          4.601          27.09          163.7          103.4          112.3
   0.08403              -31.59          1.654          79.65          46.79           6.93         -4.754          4.596          27.09          163.6          103.4          112.3
     0.112              -31.58          1.659          79.64          46.79          6.929         -4.751          4.591          27.09          163.6          103.4          112.3
      0.14              -31.58          1.663          79.63          46.79          6.928         -4.748          4.586           27.1          163.5          103.4          112.3
    0.1681              -31.58          1.668          79.62          46.79          6.927         -4.745           4.58           27.1          163.5          103.4          112.3
    0.1961              -31.58          1.673          79.61          46.78          6.925         -4.742          4.574           27.1          163.4          103.4          112.3
    0.2241              -31.58          1.679           79.6          46.78          6.924         -4.739          4.567           27.1          163.3          103.5          112.3
    0.2521              -31.58          1.685          79.58          46.78          6.922         -4.735           4.56           27.1          163.3          103.5          112.2
    0.2801              -31.57          1.691          79.57          46.78          6.921         -4.732          4.552           27.1          163.2          103.5          112.2
    0.3081              -31.57          1.698          79.55          46.78          6.919         -4.727          4.544          27.11          163.1          103.5          112.2
    0.3361              -31.57          1.705          79.54          46.78          6.917         -4.723          4.535          27.11          163.0          103.5          112.2
    0.3641              -31.57          1.713          79.52          46.78          6.915         -4.718          4.525          27.11          162.9          103.5          112.2
    0.3921              -31.56          1.722           79.5          46.78          6.913         -4.713          4.515          27.12          162.8          103.5          112.2
    0.4201              -31.56          1.731          79.48          46.77           6.91         -4.707          4.503          27.12          162.7          103.5          112.2
    0.4481              -31.56          1.741          79.46          46.77          6.908         -4.701          4.491          27.12          162.6          103.5          112.1
    0.4761              -31.55          1.752          79.43          46.77          6.905         -4.695          4.478          27.13          162.5          103.6          112.1
    0.5042              -31.55          1.764           79.4          46.77          6.902         -4.687          4.463          27.13          162.3          103.6          112.1
    0.5322              -31.54          1.778          79.38          46.77          6.898         -4.679          4.447          27.14          162.2          103.6          112.1
    0.5602              -31.54          1.792          79.34          46.76          6.894          -4.67          4.429          27.14          162.0          103.6          112.1
